<svg width="15" height="15" viewBox="0 0 15 15" fill="none" xmlns="http://www.w3.org/2000/svg">
<g clip-path="url(#clip0_4_6)">
<path d="M7.825 0.120033C7.73443 0.0425682 7.61918 0 7.5 0C7.38082 0 7.26557 0.0425682 7.175 0.120033L0 6.27003V13.5C0 13.8979 0.158035 14.2794 0.43934 14.5607C0.720644 14.842 1.10218 15 1.5 15H5.5C5.63261 15 5.75979 14.9474 5.85355 14.8536C5.94732 14.7598 6 14.6326 6 14.5V11.5C6 11.1022 6.15804 10.7207 6.43934 10.4394C6.72064 10.1581 7.10218 10 7.5 10C7.89782 10 8.27936 10.1581 8.56066 10.4394C8.84196 10.7207 9 11.1022 9 11.5V14.5C9 14.6326 9.05268 14.7598 9.14645 14.8536C9.24021 14.9474 9.36739 15 9.5 15H13.5C13.8978 15 14.2794 14.842 14.5607 14.5607C14.842 14.2794 15 13.8979 15 13.5V6.27003L7.825 0.120033Z" fill="#F8F8F8"/>
</g>
<defs>
<clipPath id="clip0_4_6">
<rect width="15" height="15" fill="white"/>
</clipPath>
</defs>
</svg>
