<svg width="513" height="512" viewBox="0 0 513 512" fill="none" xmlns="http://www.w3.org/2000/svg">
<path d="M160.444 256C160.444 251.757 162.13 247.687 165.131 244.686C168.131 241.686 172.201 240 176.444 240H320.444V136C320.444 104 286.654 80 256.444 80H104.444C89.5972 80.0159 75.3626 85.921 64.864 96.4196C54.3654 106.918 48.4603 121.153 48.4445 136V376C48.4603 390.847 54.3654 405.082 64.864 415.58C75.3626 426.079 89.5972 431.984 104.444 432H264.444C279.292 431.984 293.526 426.079 304.025 415.58C314.523 405.082 320.429 390.847 320.444 376V272H176.444C172.201 272 168.131 270.314 165.131 267.314C162.13 264.313 160.444 260.243 160.444 256ZM459.754 244.69L379.754 164.69C376.729 161.816 372.701 160.238 368.529 160.291C364.357 160.344 360.371 162.026 357.42 164.976C354.47 167.926 352.789 171.913 352.735 176.085C352.682 180.257 354.261 184.285 357.134 187.31L409.814 240H320.444V272H409.814L357.134 324.69C355.586 326.161 354.348 327.927 353.493 329.884C352.638 331.841 352.183 333.949 352.156 336.085C352.129 338.22 352.529 340.34 353.334 342.318C354.138 344.296 355.331 346.093 356.841 347.603C358.351 349.113 360.148 350.306 362.127 351.111C364.105 351.915 366.224 352.316 368.36 352.288C370.495 352.261 372.603 351.806 374.56 350.951C376.517 350.096 378.283 348.858 379.754 347.31L459.754 267.31C462.753 264.31 464.437 260.242 464.437 256C464.437 251.758 462.753 247.69 459.754 244.69Z" fill="#F8F8F8"/>
</svg>
