<svg width="16" height="16" viewBox="0 0 16 16" fill="none" xmlns="http://www.w3.org/2000/svg">
<path d="M11.5 8C11.8978 8 12.2794 8.15804 12.5607 8.43934C12.842 8.72064 13 9.10218 13 9.5V10C13 11.971 11.14 14 8 14C4.86 14 3 11.971 3 10V9.5C3 9.10218 3.15804 8.72064 3.43934 8.43934C3.72064 8.15804 4.10218 8 4.5 8H11.5ZM8 1.5C8.72935 1.5 9.42882 1.78973 9.94454 2.30546C10.4603 2.82118 10.75 3.52065 10.75 4.25C10.75 4.97935 10.4603 5.67882 9.94454 6.19454C9.42882 6.71027 8.72935 7 8 7C7.27065 7 6.57118 6.71027 6.05546 6.19454C5.53973 5.67882 5.25 4.97935 5.25 4.25C5.25 3.52065 5.53973 2.82118 6.05546 2.30546C6.57118 1.78973 7.27065 1.5 8 1.5Z" fill="#F8F8F8"/>
</svg>
