<svg width="24" height="24" viewBox="0 0 24 24" fill="none" xmlns="http://www.w3.org/2000/svg">
<path d="M17.578 4.432L15.578 3.382C13.822 2.461 12.944 2 12 2C11.056 2 10.178 2.46 8.422 3.382L8.101 3.551L17.024 8.65L21.04 6.64C20.394 5.908 19.352 5.361 17.578 4.43V4.432ZM21.748 7.964L17.75 9.964V13C17.75 13.1989 17.671 13.3897 17.5303 13.5303C17.3897 13.671 17.1989 13.75 17 13.75C16.8011 13.75 16.6103 13.671 16.4697 13.5303C16.329 13.3897 16.25 13.1989 16.25 13V10.713L12.75 12.463V21.904C13.468 21.725 14.285 21.297 15.578 20.618L17.578 19.568C19.729 18.439 20.805 17.875 21.403 16.86C22 15.846 22 14.583 22 12.06V11.943C22 10.05 22 8.866 21.748 7.964ZM11.25 21.904V12.464L2.252 7.964C2 8.866 2 10.05 2 11.941V12.058C2 14.583 2 15.846 2.597 16.86C3.195 17.875 4.271 18.44 6.422 19.569L8.422 20.618C9.715 21.297 10.532 21.725 11.25 21.904ZM2.96 6.641L12 11.161L15.411 9.456L6.525 4.378L6.422 4.432C4.649 5.362 3.606 5.909 2.96 6.642V6.641Z" fill="#F8F8F8"/>
</svg>
